<?xml version="1.0" standalone="no"?>
<!DOCTYPE svg PUBLIC "-//W3C//DTD SVG 20010904//EN"
 "http://www.w3.org/TR/2001/REC-SVG-20010904/DTD/svg10.dtd">
<svg version="1.0" xmlns="http://www.w3.org/2000/svg"
 width="497.000000pt" height="497.000000pt" viewBox="0 0 497.000000 497.000000"
 preserveAspectRatio="xMidYMid meet">
<metadata>
Created by potrace 1.11, written by Peter Selinger 2001-2013
</metadata>
<g transform="translate(0.000000,497.000000) scale(0.100000,-0.100000)"
fill="#000000" stroke="none">
<path d="M3734 3932 c-84 -101 -155 -252 -189 -405 -21 -89 -14 -116 40 -149
61 -38 153 -5 283 103 113 93 152 173 107 218 -32 32 -89 18 -177 -43 -45 -30
-83 -54 -85 -53 -5 5 72 235 95 286 38 82 -16 113 -74 43z"/>
<path d="M3462 3913 c-32 -13 -85 -171 -97 -291 -7 -67 -9 -210 -3 -228 1 -5
-18 -34 -44 -63 l-48 -53 -1 38 c-1 22 -3 53 -4 69 -2 17 -6 59 -10 94 -6 69
-17 91 -46 91 -64 0 -107 -198 -86 -396 l6 -61 -46 -52 c-52 -59 -56 -58 -74
31 -11 58 -16 81 -24 116 -3 12 -7 32 -10 44 -2 12 -9 26 -14 31 -20 20 -38
-4 -55 -76 -19 -81 -23 -162 -13 -272 6 -65 5 -72 -19 -99 -14 -16 -29 -25
-34 -20 -5 5 -11 63 -15 129 -5 105 -8 122 -26 138 -41 34 -67 13 -99 -79 -29
-82 -36 -202 -17 -284 l16 -65 -65 -65 -64 -65 -1 65 c-1 36 -2 76 -4 90 -1
14 -4 45 -6 68 -3 50 -30 77 -59 62 -41 -22 -91 -238 -94 -404 -1 -34 -7 -44
-68 -97 -36 -33 -68 -56 -71 -52 -2 4 -8 40 -12 78 -4 39 -9 79 -11 90 -2 11
-7 40 -10 65 -7 53 -19 70 -48 70 -33 0 -66 -103 -68 -215 -1 -63 10 -194 18
-206 4 -7 -105 -109 -117 -109 -3 0 -6 6 -6 13 -1 6 -4 59 -8 117 -3 58 -7
133 -9 167 -3 67 -17 93 -50 93 -44 0 -66 -39 -97 -175 -13 -60 -19 -230 -9
-302 3 -29 4 -56 1 -61 -8 -12 -196 -152 -251 -188 -25 -16 -47 -32 -50 -35
-6 -7 -150 -101 -246 -159 l-62 -39 5 61 c6 86 16 104 70 132 121 61 239 179
294 292 31 67 36 93 17 112 -25 25 -58 12 -121 -48 -75 -70 -167 -145 -167
-135 0 12 73 148 123 230 76 122 102 152 141 159 75 14 205 122 314 259 75 94
84 111 90 160 9 80 -16 109 -70 81 -40 -21 -64 -45 -124 -124 -77 -102 -128
-150 -153 -143 -12 3 -32 -2 -47 -12 l-25 -16 6 58 c3 32 10 74 14 93 4 19 9
67 10 107 2 66 0 73 -22 88 -39 25 -49 18 -106 -88 -44 -82 -70 -203 -74 -352
-2 -55 -7 -67 -60 -147 -32 -49 -60 -88 -62 -88 -6 0 -26 135 -29 203 -4 74
-13 92 -44 83 -18 -6 -30 -34 -48 -116 -15 -67 -15 -257 0 -322 16 -71 15 -77
-29 -172 l-13 -29 -20 39 c-33 65 -68 157 -82 215 -15 64 -34 82 -67 66 -35
-15 -45 -82 -30 -192 14 -105 80 -267 124 -308 21 -18 21 -67 0 -67 -24 0
-171 135 -223 205 -35 48 -43 55 -61 48 -18 -7 -16 -40 7 -108 25 -74 57 -127
110 -188 49 -55 56 -55 -99 -10 -64 18 -86 21 -97 12 -23 -19 -17 -32 39 -86
71 -70 149 -105 249 -111 48 -3 78 -9 78 -16 0 -6 3 -21 6 -33 6 -21 4 -22
-33 -17 -82 11 -121 -27 -129 -128 -5 -58 -3 -66 26 -111 18 -26 50 -63 73
-82 106 -91 276 -162 330 -138 63 29 32 88 -95 183 -48 35 -86 65 -85 67 3 3
109 10 277 18 63 4 129 8 147 9 l32 3 -29 -58 c-32 -61 -80 -197 -80 -223 0
-8 9 -18 21 -21 28 -9 90 33 136 95 21 27 40 49 43 49 3 1 14 -15 25 -35 11
-20 34 -47 51 -60 31 -24 89 -34 112 -21 11 7 -1 62 -33 147 -15 40 -16 132
-2 146 3 3 20 7 38 10 33 4 35 3 66 -63 18 -38 52 -89 77 -114 51 -51 140 -99
184 -99 42 0 91 19 102 41 12 21 -4 41 -102 122 -33 28 -65 66 -77 92 -27 57
-26 62 4 67 17 4 31 -2 47 -20 69 -74 199 -133 293 -133 79 0 198 38 203 65 5
25 -7 34 -53 41 -38 5 -231 92 -223 101 2 2 49 17 103 34 l98 30 91 -44 c92
-44 133 -56 216 -62 55 -4 137 20 176 51 40 33 24 59 -37 63 -55 3 -192 40
-215 56 -15 12 -12 15 27 28 31 11 60 13 91 8 150 -22 391 23 501 96 42 28 89
77 99 105 15 40 -66 47 -176 15 -32 -9 -60 -15 -62 -13 -2 2 15 14 39 27 166
92 357 257 357 309 0 22 -7 31 -29 41 -36 14 -67 0 -231 -110 -118 -79 -241
-153 -245 -148 -4 6 93 238 111 264 48 68 50 84 11 101 -38 16 -89 -2 -129
-46 -34 -39 -218 -391 -218 -418 0 -16 -38 -35 -140 -73 -54 -20 -80 -25 -80
-17 0 6 18 65 40 130 39 119 41 141 14 151 -53 20 -153 -115 -216 -293 l-23
-63 -57 -18 c-32 -10 -73 -21 -92 -24 l-35 -7 30 66 c35 73 48 139 30 149 -23
14 -74 -7 -112 -47 -22 -22 -60 -78 -85 -124 -25 -45 -49 -83 -52 -84 -4 0
-14 -2 -22 -4 -64 -14 -130 -21 -130 -13 0 6 16 46 36 91 38 87 40 123 9 142
-58 36 -163 -61 -222 -205 -20 -50 -25 -56 -60 -61 -40 -7 -143 -16 -278 -24
l-80 -5 158 54 c179 61 204 72 224 103 16 24 5 57 -26 79 -16 13 -153 12 -183
-1 -26 -10 -22 8 5 24 12 8 85 60 162 116 l140 103 105 6 c131 7 206 21 289
52 94 35 166 87 204 146 17 27 16 29 -2 47 -26 26 -62 21 -261 -33 l-95 -25
44 37 c24 20 74 63 110 94 58 51 70 57 96 51 47 -10 109 -7 203 11 176 35 290
103 262 157 -13 23 -55 28 -190 23 l-115 -4 69 64 68 64 37 -15 c44 -19 234
-21 301 -3 91 25 135 85 88 122 -25 19 -56 24 -187 33 -47 3 -87 7 -89 9 -2 3
48 62 112 133 l116 128 136 2 c142 2 282 23 322 49 24 16 30 55 10 72 -13 10
-85 32 -123 38 -76 10 -111 14 -150 16 -25 0 -45 4 -45 7 0 3 17 25 38 48 60
67 72 83 132 167 90 127 112 170 102 197 -5 13 -7 126 -6 252 2 190 0 230 -13
242 -15 16 -20 17 -41 8z"/>
<path d="M3683 3299 c-102 -19 -180 -43 -206 -63 -43 -33 -37 -119 11 -156 21
-17 36 -21 67 -16 106 14 314 107 378 168 33 31 37 39 28 56 -20 37 -116 41
-278 11z"/>
<path d="M3175 2753 c-69 -16 -90 -32 -81 -61 9 -28 96 -68 171 -79 123 -18
190 12 188 83 -2 59 -20 69 -126 70 -51 0 -119 -6 -152 -13z"/>
</g>
</svg>
